<!DOCTYPE svg PUBLIC "-//W3C//DTD SVG 1.1//EN" "http://www.w3.org/Graphics/SVG/1.1/DTD/svg11.dtd">
<!-- Uploaded to: SVG Repo, www.svgrepo.com, Transformed by: SVG Repo Mixer Tools -->
<svg width="800px" height="800px" viewBox="0 0 24 24" fill="none" xmlns="http://www.w3.org/2000/svg">
<g id="SVGRepo_bgCarrier" stroke-width="0"/>
<g id="SVGRepo_tracerCarrier" stroke-linecap="round" stroke-linejoin="round"/>
<g id="SVGRepo_iconCarrier"> <path d="M12.9751 4.96C12.9751 4.42981 12.5635 4 12.0557 4C11.548 4 11.1364 4.42981 11.1364 4.96V5.67361C11.1364 6.2038 11.548 6.63361 12.0557 6.63361C12.5635 6.63361 12.9751 6.2038 12.9751 5.67361V4.96Z" fill="#ffffff"/> <path d="M7.50523 6.94568C7.1462 6.57078 6.5641 6.57078 6.20507 6.94568C5.84604 7.32059 5.84604 7.92842 6.20507 8.30333L6.6883 8.80792C7.04733 9.18283 7.62944 9.18283 7.98847 8.80792C8.3475 8.43302 8.3475 7.82518 7.98847 7.45028L7.50523 6.94568Z" fill="#ffffff"/> <path d="M18.0365 8.30333C18.3956 7.92842 18.3956 7.32058 18.0365 6.94568C17.6775 6.57078 17.0954 6.57078 16.7364 6.94568L16.2531 7.45028C15.8941 7.82518 15.8941 8.43302 16.2531 8.80792C16.6122 9.18283 17.1943 9.18283 17.5533 8.80792L18.0365 8.30333Z" fill="#ffffff"/> <path d="M6.24959 14.24H3.41935C2.91161 14.24 2.5 14.6698 2.5 15.2C2.5 15.7302 2.91161 16.16 3.41935 16.16H20.5806C21.0884 16.16 21.5 15.7302 21.5 15.2C21.5 14.6698 21.0884 14.24 20.5806 14.24H17.7504C17.3096 11.3383 14.9029 9.12 12 9.12C9.0971 9.12 6.69037 11.3383 6.24959 14.24Z" fill="#ffffff"/> <path d="M6.17742 19.04C6.17742 18.5098 6.58903 18.08 7.09677 18.08H16.9032C17.411 18.08 17.8226 18.5098 17.8226 19.04C17.8226 19.5702 17.411 20 16.9032 20H7.09677C6.58903 20 6.17742 19.5702 6.17742 19.04Z" fill="#ffffff"/> </g>
</svg>